<?xml version="1.0" encoding="UTF-8"?>
<svg id="Laag_1" xmlns="http://www.w3.org/2000/svg" version="1.1" viewBox="0 0 1000 311.4">
  <!-- Generator: Adobe Illustrator 30.5.0, SVG Export Plug-In . SVG Version: 2.1.4 Build 167)  -->
  <defs>
    <style>
      .st0 {
        fill: #fdc41f;
      }

      .st0, .st1, .st2, .st3, .st4 {
        fill-rule: evenodd;
      }

      .st1 {
        fill: #fefefe;
        stroke: #161414;
        stroke-miterlimit: 2.3;
        stroke-width: 3px;
      }

      .st2 {
        fill: #fff;
      }

      .st3, .st5 {
        fill: #161515;
      }

      .st4 {
        fill: #e3051a;
      }
    </style>
  </defs>
  <g>
    <path class="st2" d="M780.7,0c9.4,0,7.6-1.2,7.6,8.5l-1.4,218.1c0,2.7.3,2.2-2.4,2.2h-111.7c-3.3-.1-2.5-.3-2.5,3.2,0,4.9-1.1,4.2,3.3,4.2,20.6-.2,131.3-1.1,133.4-1.1,2.3,0,7.5-.8,8.4-3.7.9-2.9-3.9-.3-6-2.7-2.1-2.4,1.2-9-1-10.1-1.7-.8-11-.9-15.3-1-2.9,0-2.2.6-2-2.9,1.2-23.6,9.6-185.6,10.4-191.7.8-6.6,11.1-5.4,12.3-5.4s2.2-1.4,3.4-2.6c2.1-2.2,1-2,3.9-1.2l19.8,5.5c4.2,1.2,4.4,1.1,8.8,1.1,19,.3,87.5,2,103.1,10.4,18.1,9.7,30.1,50.2,30.9,52,.5,1.3-5.2,2.6-8.5,3.3-2.9.6-2.6-.2-1.8,2.4,2.3,7.8,10.8,36.6,11.1,39.5.4,3.4,1.3.9,4.1,2.3,2.8,1.4,3.1,13.5,3.1,17s2.5,2.5,3.8,3.8c1.3,1.4,3.8,21,4.5,33.6,1.1,18-3.7,10.7-8,18.2-1.4,2.4,1.7,3.4,4.1,7.7,2.4,4.3.7,39.3.7,55.7,0,4.6,1.5,24.3-5.2,24.9-10.3,1-44.2-2.3-48.5-2.8-3.8-.5-2.4-2.9-5.7-2.7l-10.6.5-73,1.9s-197.9.4-199.5.4c-1.7,0-.9-8.9-1.4-8.8-.4,0-.3,5.8-.3,8.2,0,1.4.2,1.1-1.4.7l-6.1-1.5-.2-2.3s-3.8,0-4.1,0c-.3,0,.1-3.9.1-3.9h-2.9c0,0-72.2-8.8-75.3-9.6-3.1-.9-.5,7.4-.6,10.8,0,3-2.3,4.3-4.7,5.2-1.2.4-1.9,10.1-4.1,9.1-1.5-.7-1.1-3.8-.6-5.7.4-1.8.8-1.5-.9-1.4-1.5,0-1.3.3-1.2-1.1l1-20c.3-6.3-12.8-1.3-18.2,2.5-1.6,1.1-1.4.7-1.5,2.5l-.3,8.5c0,1.6,0,1.2-1.6,1.2l-206.6.9c-2.4,0-2,.4-2-2v-13.1c0-2.4-1.1-1.5-3.8-1.5,0,0-230.4,7.9-255.5,8.8-2.6,0-2.4-.5-2.6,2.1-.4,5-.7,17.7-.8,19.2,0,1.1-2.3,2.4-4.3,3.1-2.7,1.1-2.9,1.4-3.1-1.4-.2-3.6,0-10.3,0-10.3,0,0,.2-13.7.3-20.6,0-6.8-1.1-2.4-8.2-1.6l-39.3.3c-4.6,0-3.7.6-3.7-4.1V7.4C.2-1.4-1.2,0,7.6,0h773.1"/>
    <path class="st3" d="M564.9,229.8c3.8,0,3.4-.5.8,2-2.1,1.9-5.1,5-7,7.6-2.7,3.8-35.9,3.6-42.5,3.5-1.4,0-1.1.3-1.1-1v-10.4c0-1.8-.3-1.7,1.3-1.7h48.5"/>
    <path class="st3" d="M506.5,230.3c3.4,0,2.6-.6,2.6,3.2,0,3.4,0,8.4.1,9.5,0,1.3-11,1.2-15.7,1.2-2.7,0-2.2.3-.7-2.4l5.2-9.1c2-2.9,1.3-2.3,4.9-2.3h3.6"/>
    <path class="st3" d="M536.8,256c0-1.4.3-1.2-1.1-1.3h-3.8c-1.2,0-.9-.2-.9,1.1,0,1.4-.2,1.2.8,2.2l3.6,3.6c1.2,1.2,1,1.2,1.1-.5l.3-5.1"/>
    <path class="st3" d="M524.6,259.4v8.3h-10.2v-8.3h10.2"/>
    <path class="st3" d="M510,259.2v8.3h-82.7v-8.3h82.7"/>
    <path class="st3" d="M421,259.2v8.3h-82.7v-8.3h82.7"/>
    <path class="st3" d="M331.4,260.4v13.4h-4.6v-13.4h4.6"/>
    <path class="st3" d="M938.8,130c2.9,0,3,.9,2.7-1.2-1.4-9.4-3.3-33.7-9.6-37.1-2.1-1.2-20-1.4-25-1.3-4.9,0-3.9,2.4-4.4,9-.5,6.6,1.9,29.2,3.9,33.1,2,3.9,16.7,5.2,19.2,5.2s6.5-3.4,7.7-5.8c.7-1.4,3.3-1.7,5.4-1.7"/>
    <path class="st3" d="M947.7,93.8c-.7-3.3-1.3-2.6,1.9-3.1,2.8-.4,7.1-1,8.9-.5,2.7.7,4.9,31.4,6,39.4,1.2,8-3.4,7.4-5.8,6.5-2-.8-9-32.7-11.1-42.3"/>
    <polygon class="st5" points="835.2 223.9 833.3 223.9 835 78.1 813.5 79.5 813.4 77.6 836.9 76.1 836.9 77.1 835.2 223.9"/>
    <rect class="st5" x="810.2" y="48.9" width="56.4" height="1.9" transform="translate(769 886.9) rotate(-88.7)"/>
    <path class="st5" d="M964.6,74.2c0-.3-6.1-28.6-21.5-34.7-15.7-6.2-59.2-7.6-59.7-7.6l-66.7-2.1v-1.9c0,0,66.7,2.1,66.7,2.1,1.8,0,44.3,1.4,60.3,7.7,16.4,6.5,22.4,34.9,22.7,36.1l-1.8.4Z"/>
    <path class="st5" d="M889.6,187.3l-55.8-.6.6-46.7,51.9,2h3.4s0,45.3,0,45.3ZM835.6,184.8l52,.6v-41.5s-.1,0-.1,0h0s-51.4-2-51.4-2l-.5,42.9Z"/>
    <rect class="st5" x="891.2" y="78" width="1.9" height="143.4" transform="translate(-.5 2.7)"/>
    <path class="st5" d="M991.6,201.7c-.5,0-1.7-.1-4.5-.5-8.1-1-26.9-3.5-46.6-3.5s-131.6-6.6-132.7-6.6v-1.9c1.2,0,107.2,6.6,132.7,6.6s38.7,2.4,46.8,3.5c2.1.3,4,.5,4.3.5l.2,1.9s-.1,0-.2,0Z"/>
    <path class="st5" d="M976,251.4l-34.7-3.8v-.8c-.1-.3-2.9-25.4-30.7-34.1-27.8-8.7-49.4-1.1-55.6,4-5.7,4.7-8.6,10-8.6,10l-1.7-.9c.1-.2,3.1-5.7,9.1-10.6,6.4-5.3,28.8-13.2,57.3-4.3,26.2,8.2,31.1,30.5,31.8,35l33.2,3.6-.2,1.9Z"/>
    <polygon class="st5" points="982.1 262.8 980.2 262.8 980.8 212.7 977.8 146.3 979.7 146.2 982.6 212.7 982.1 262.8"/>
    <path class="st3" d="M982.1,262.1v19h-37.1v-19h37.1"/>
    <path class="st3" d="M806.3,249.5c8.7,0,15.8,2.6,15.8,5.8s-7.1,5.7-15.8,5.7c-8.7,0-15.8-2.6-15.8-5.7s7.1-5.8,15.8-5.8"/>
    <path class="st3" d="M801,269.8c8.7,0,15.8,2.6,15.8,5.8,0,3.2-7.1,5.7-15.8,5.7-8.7,0-15.8-2.6-15.8-5.7,0-3.2,7.1-5.8,15.8-5.8"/>
    <path class="st3" d="M962.8,74.3l-.2,6.3-124.7-4.2.2-6.3,124.7,4.2"/>
    <path class="st1" d="M775.2,8v215.8H12.2V8h763.1"/>
    <path class="st2" d="M895,309.7c22.9,0,41.5-18.6,41.5-41.5,0-22.9-18.6-41.5-41.5-41.5-22.9,0-41.5,18.6-41.5,41.5s18.6,41.5,41.5,41.5"/>
    <path class="st3" d="M895,299.6c17.3,0,31.4-14.1,31.4-31.4s-14.1-31.4-31.4-31.4c-17.3,0-31.4,14.1-31.4,31.4s14.1,31.4,31.4,31.4"/>
    <path class="st2" d="M894.9,292.5c13.7,0,24.7-11.1,24.7-24.7,0-13.7-11.1-24.7-24.7-24.7-13.7,0-24.7,11.1-24.7,24.7s11.1,24.7,24.7,24.7"/>
    <path class="st3" d="M895,275.2c4.2,0,7.6-3.4,7.6-7.6s-3.4-7.6-7.6-7.6-7.6,3.4-7.6,7.6,3.4,7.6,7.6,7.6"/>
    <path class="st3" d="M894.8,279.8c1,0,1.8-.8,1.8-1.8s-.8-1.8-1.8-1.8-1.8.8-1.8,1.8.8,1.8,1.8,1.8"/>
    <path class="st3" d="M894.8,259.2c1,0,1.8-.8,1.8-1.8s-.8-1.8-1.8-1.8-1.8.8-1.8,1.8.8,1.8,1.8,1.8"/>
    <path class="st3" d="M884.6,268.8c1,0,1.8-.8,1.8-1.8s-.8-1.8-1.8-1.8-1.8.8-1.8,1.8.8,1.8,1.8,1.8"/>
    <path class="st3" d="M905.4,268.8c1,0,1.8-.8,1.8-1.8s-.8-1.8-1.8-1.8-1.8.8-1.8,1.8.8,1.8,1.8,1.8"/>
    <path class="st3" d="M887.7,262.2c1,0,1.8-.8,1.8-1.8s-.8-1.8-1.8-1.8-1.8.8-1.8,1.8.8,1.8,1.8,1.8"/>
    <path class="st3" d="M902.1,262c1,0,1.8-.8,1.8-1.8s-.8-1.8-1.8-1.8-1.8.8-1.8,1.8.8,1.8,1.8,1.8"/>
    <path class="st3" d="M887.3,276.7c1,0,1.8-.8,1.8-1.8s-.8-1.8-1.8-1.8-1.8.8-1.8,1.8.8,1.8,1.8,1.8"/>
    <path class="st3" d="M902.7,276.7c1,0,1.8-.8,1.8-1.8s-.8-1.8-1.8-1.8-1.8.8-1.8,1.8.8,1.8,1.8,1.8"/>
    <path class="st2" d="M621.7,309c21.6-7.7,32.9-31.4,25.2-53-7.7-21.6-31.4-32.8-53-25.1-21.6,7.7-32.9,31.4-25.2,53,7.7,21.6,31.4,32.9,53,25.2"/>
    <path class="st3" d="M618.3,299.4c16.3-5.8,24.8-23.8,19-40.1-5.8-16.3-23.8-24.8-40.1-19-16.3,5.8-24.8,23.8-19,40.1,5.8,16.3,23.8,24.8,40.1,19"/>
    <path class="st2" d="M615.8,292.8c12.9-4.6,19.6-18.7,15-31.6-4.6-12.9-18.7-19.6-31.6-15-12.9,4.6-19.6,18.7-15,31.6,4.6,12.9,18.7,19.6,31.6,15"/>
    <path class="st3" d="M610.1,276.5c4-1.4,6-5.8,4.6-9.8-1.4-4-5.8-6-9.8-4.6-4,1.4-6,5.8-4.6,9.7,1.4,4,5.8,6,9.7,4.6"/>
    <path class="st3" d="M611.5,280.9c.9-.3,1.4-1.4,1.1-2.3-.3-.9-1.4-1.4-2.3-1.1-.9.3-1.4,1.4-1.1,2.3.3.9,1.4,1.4,2.3,1.1"/>
    <path class="st3" d="M604.6,261.5c.9-.3,1.4-1.4,1.1-2.3-.3-.9-1.4-1.4-2.3-1.1-.9.3-1.4,1.4-1.1,2.3.3.9,1.4,1.4,2.3,1.1"/>
    <path class="st3" d="M598.2,273.9c.9-.3,1.4-1.4,1.1-2.3-.3-.9-1.4-1.4-2.3-1.1-.9.3-1.4,1.4-1.1,2.3s1.4,1.4,2.3,1.1"/>
    <path class="st3" d="M617.8,266.9c.9-.3,1.4-1.4,1.1-2.3s-1.4-1.4-2.3-1.1c-.9.3-1.4,1.4-1.1,2.3.3.9,1.4,1.4,2.3,1.1"/>
    <path class="st3" d="M598.9,266.7c.9-.3,1.4-1.4,1.1-2.3-.3-.9-1.4-1.4-2.3-1.1-.9.3-1.4,1.4-1.1,2.3.3.9,1.4,1.4,2.3,1.1"/>
    <path class="st3" d="M612.4,261.6c.9-.3,1.4-1.4,1.1-2.3-.3-.9-1.4-1.4-2.3-1.1-.9.3-1.4,1.4-1.1,2.3.3.9,1.4,1.4,2.3,1.1"/>
    <path class="st3" d="M603.4,280.5c.9-.3,1.4-1.4,1.1-2.3-.3-.9-1.4-1.4-2.3-1.1-.9.3-1.4,1.4-1.1,2.3.3.9,1.4,1.4,2.3,1.1"/>
    <path class="st3" d="M617.9,275.3c.9-.3,1.4-1.4,1.1-2.3-.3-.9-1.4-1.4-2.3-1.1s-1.4,1.4-1.1,2.3c.3.9,1.4,1.4,2.3,1.1"/>
    <path class="st2" d="M290.6,304.7c21.6-7.7,32.8-31.4,25.1-53-7.7-21.6-31.4-32.9-53-25.2-21.6,7.7-32.9,31.4-25.2,53,7.7,21.6,31.4,32.9,53,25.2"/>
    <path class="st3" d="M287.2,295.1c16.3-5.8,24.8-23.8,19-40.1-5.8-16.3-23.8-24.8-40.1-19-16.3,5.8-24.8,23.8-19,40.1,5.8,16.3,23.8,24.8,40.1,19"/>
    <path class="st2" d="M284.7,288.5c12.9-4.6,19.6-18.7,15-31.6-4.6-12.9-18.7-19.6-31.6-15-12.9,4.6-19.6,18.7-15,31.6,4.6,12.9,18.7,19.6,31.6,15"/>
    <path class="st3" d="M279,272.2c4-1.4,6-5.8,4.6-9.7-1.4-4-5.8-6-9.8-4.6-4,1.4-6,5.8-4.6,9.7,1.4,4,5.8,6,9.7,4.6"/>
    <path class="st3" d="M280.4,276.6c.9-.3,1.4-1.4,1.1-2.3-.3-.9-1.4-1.4-2.3-1.1-.9.3-1.4,1.4-1.1,2.3.3.9,1.4,1.4,2.3,1.1"/>
    <path class="st3" d="M273.5,257.2c.9-.3,1.4-1.4,1.1-2.3-.3-.9-1.4-1.4-2.3-1.1-.9.3-1.4,1.4-1.1,2.3.3.9,1.4,1.4,2.3,1.1"/>
    <path class="st3" d="M267.1,269.6c.9-.3,1.4-1.4,1.1-2.3-.3-.9-1.4-1.4-2.3-1.1s-1.4,1.4-1.1,2.3c.3.9,1.4,1.4,2.3,1.1"/>
    <path class="st3" d="M286.7,262.6c.9-.3,1.4-1.4,1.1-2.3-.3-.9-1.4-1.4-2.3-1.1-.9.3-1.4,1.4-1.1,2.3.3.9,1.4,1.4,2.3,1.1"/>
    <path class="st3" d="M267.8,262.4c.9-.3,1.4-1.4,1.1-2.3-.3-.9-1.4-1.4-2.3-1.1-.9.3-1.4,1.4-1.1,2.3.3.9,1.4,1.4,2.3,1.1"/>
    <path class="st3" d="M281.3,257.3c.9-.3,1.4-1.4,1.1-2.3s-1.4-1.4-2.3-1.1c-.9.3-1.4,1.4-1.1,2.3.3.9,1.4,1.4,2.3,1.1"/>
    <path class="st3" d="M272.2,276.2c.9-.3,1.4-1.4,1.1-2.3s-1.4-1.4-2.3-1.1c-.9.3-1.4,1.4-1.1,2.3.3.9,1.4,1.4,2.3,1.1"/>
    <path class="st3" d="M286.7,271c.9-.3,1.4-1.4,1.1-2.3s-1.4-1.4-2.3-1.1c-.9.3-1.4,1.4-1.1,2.3.3.9,1.4,1.4,2.3,1.1"/>
    <path class="st2" d="M206.4,306.2c21.6-7.7,32.8-31.4,25.1-53-7.7-21.6-31.4-32.9-53-25.2-21.6,7.7-32.9,31.4-25.2,53,7.7,21.6,31.4,32.9,53,25.2"/>
    <path class="st3" d="M203,296.6c16.3-5.8,24.8-23.8,19-40.1-5.8-16.3-23.8-24.8-40.1-19-16.3,5.8-24.8,23.8-19,40.1,5.8,16.3,23.8,24.8,40.1,19"/>
    <path class="st2" d="M200.5,290c12.9-4.6,19.6-18.7,15-31.6-4.6-12.9-18.7-19.6-31.6-15-12.9,4.6-19.6,18.7-15,31.6,4.6,12.9,18.7,19.6,31.6,15"/>
    <path class="st3" d="M194.8,273.6c4-1.4,6-5.8,4.6-9.8-1.4-4-5.8-6-9.8-4.6-4,1.4-6,5.8-4.6,9.7,1.4,4,5.8,6,9.7,4.6"/>
    <path class="st3" d="M196.2,278.1c.9-.3,1.4-1.4,1.1-2.3-.3-.9-1.4-1.4-2.3-1.1-.9.3-1.4,1.4-1.1,2.3s1.4,1.4,2.3,1.1"/>
    <path class="st3" d="M189.3,258.7c.9-.3,1.4-1.4,1.1-2.3-.3-.9-1.4-1.4-2.3-1.1-.9.3-1.4,1.4-1.1,2.3.3.9,1.4,1.4,2.3,1.1"/>
    <path class="st3" d="M182.9,271.1c.9-.3,1.4-1.4,1.1-2.3-.3-.9-1.4-1.4-2.3-1.1-.9.3-1.4,1.4-1.1,2.3.3.9,1.4,1.4,2.3,1.1"/>
    <path class="st3" d="M202.5,264.1c.9-.3,1.4-1.4,1.1-2.3-.3-.9-1.4-1.4-2.3-1.1-.9.3-1.4,1.4-1.1,2.3.3.9,1.4,1.4,2.3,1.1"/>
    <path class="st3" d="M183.6,263.9c.9-.3,1.4-1.4,1.1-2.3-.3-.9-1.4-1.4-2.3-1.1s-1.4,1.4-1.1,2.3,1.4,1.4,2.3,1.1"/>
    <path class="st3" d="M197.1,258.8c.9-.3,1.4-1.4,1.1-2.3s-1.4-1.4-2.3-1.1c-.9.3-1.4,1.4-1.1,2.3.3.9,1.4,1.4,2.3,1.1"/>
    <path class="st3" d="M188,277.6c.9-.3,1.4-1.4,1.1-2.3s-1.4-1.4-2.3-1.1c-.9.3-1.4,1.4-1.1,2.3.3.9,1.4,1.4,2.3,1.1"/>
    <path class="st3" d="M202.5,272.5c.9-.3,1.4-1.4,1.1-2.3-.3-.9-1.4-1.4-2.3-1.1s-1.4,1.4-1.1,2.3c.3.9,1.4,1.4,2.3,1.1"/>
    <path class="st2" d="M118.5,306.2c21.6-7.7,32.9-31.4,25.2-53-7.7-21.6-31.4-32.9-53-25.2-21.6,7.7-32.9,31.4-25.2,53,7.7,21.6,31.4,32.9,53,25.2"/>
    <path class="st3" d="M115.1,296.6c16.3-5.8,24.8-23.8,19-40.1-5.8-16.3-23.8-24.8-40.1-19-16.3,5.8-24.8,23.8-19,40.1,5.8,16.3,23.8,24.8,40.1,19"/>
    <path class="st2" d="M112.7,290c12.9-4.6,19.6-18.7,15-31.6-4.6-12.9-18.7-19.6-31.6-15-12.9,4.6-19.6,18.7-15,31.6,4.6,12.9,18.7,19.6,31.6,15"/>
    <path class="st3" d="M106.9,273.6c4-1.4,6-5.8,4.6-9.8-1.4-4-5.8-6-9.7-4.6-4,1.4-6,5.8-4.6,9.7,1.4,4,5.8,6,9.7,4.6"/>
    <path class="st3" d="M108.3,278.1c.9-.3,1.4-1.4,1.1-2.3-.3-.9-1.4-1.4-2.3-1.1-.9.3-1.4,1.4-1.1,2.3s1.4,1.4,2.3,1.1"/>
    <path class="st3" d="M101.4,258.7c.9-.3,1.4-1.4,1.1-2.3-.3-.9-1.4-1.4-2.3-1.1-.9.3-1.4,1.4-1.1,2.3.3.9,1.4,1.4,2.3,1.1"/>
    <path class="st3" d="M95,271.1c.9-.3,1.4-1.4,1.1-2.3-.3-.9-1.4-1.4-2.3-1.1-.9.3-1.4,1.4-1.1,2.3.3.9,1.4,1.4,2.3,1.1"/>
    <path class="st3" d="M114.7,264.1c.9-.3,1.4-1.4,1.1-2.3-.3-.9-1.4-1.4-2.3-1.1-.9.3-1.4,1.4-1.1,2.3.3.9,1.4,1.4,2.3,1.1"/>
    <path class="st3" d="M95.8,263.9c.9-.3,1.4-1.4,1.1-2.3-.3-.9-1.4-1.4-2.3-1.1-.9.3-1.4,1.4-1.1,2.3s1.4,1.4,2.3,1.1"/>
    <path class="st3" d="M109.2,258.8c.9-.3,1.4-1.4,1.1-2.3s-1.4-1.4-2.3-1.1c-.9.3-1.4,1.4-1.1,2.3.3.9,1.4,1.4,2.3,1.1"/>
    <path class="st3" d="M100.2,277.6c.9-.3,1.4-1.4,1.1-2.3s-1.4-1.4-2.3-1.1-1.4,1.4-1.1,2.3c.3.9,1.4,1.4,2.3,1.1"/>
    <path class="st3" d="M114.7,272.5c.9-.3,1.4-1.4,1.1-2.3-.3-.9-1.4-1.4-2.3-1.1-.9.3-1.4,1.4-1.1,2.3.3.9,1.4,1.4,2.3,1.1"/>
  </g>
  <g>
    <path d="M142.8,76.9c.5,5.8-6.4,9.1-10.5,11.9,0-2.4,1.8-4.9.4-7.3-5.7-7.8-15-8.6-24.3-8.4-5.1,1.1-11.5,3.3-12.6,9,.2,2.9,2.8,5.2,5.2,6.8,11.1,4.6,23,7.5,33.5,13.6,5.1,3.7,5.5,10.9,3.4,16.1-4,10.2-18.5,14.6-29.9,17.1-13.4,2.6-27.5,1-38.5-5.2-4.3-2.8-4.2-7.5-3.2-12,1.8-2.9,2.8-5.8,7.4-7.7-.6,2.3-1,5.8.7,7.8,4,9,28.2,12,45,8.4,5.1-1.4,11.6-4.6,11.7-7.9,2.4-11-14.5-11.4-22.7-15.7-7.6-3.3-20.7-5.3-20.3-16.3.9-8.4,9.7-14.3,17.1-17.4,11.6-4.2,28.1-4.2,37,4.8l.6,2.4"/>
    <path d="M396.4,79.6c-3.2-4.2-8.1-6.3-13.9-5.1-13.6,2.2-9.8,16.9-13.9,25.6,9.8-.2,18.3-3.2,25.4-9.2,2.4-3.2,3.9-7.3,2.4-11.3M407.5,73c2.6,10.8-8.8,18.4-16.4,25.2-7.6,4.6-15.8,8.3-24.9,9.7-2.8,2.1-3.1,6-5,8.9-2.1,2.7-4.9,5.9-8.1,7.5,18,5.9,41,17.9,59.5,4.4-7.9,11.2-21.4,15.7-35.6,13.8-16-4-30.5-11.7-47.9-12.4,1.4-3.1,3.4-6.1,6-8.9,6.1-1.2,11.3,4.1,16.4.7,3-4,4.9-8.4,5.4-13.3-8.5-1.4-18.5-3.3-22.2-11.8-1.6-7.4,5.4-12.9,11-16.3h.5c-2.3,3.2-3.9,7.2-2.4,11.3,3.2,5.4,9.1,8.8,15.5,8.5.7-13.9,11.6-27.4,25.5-31.7,7.6-1.5,18.1-3,22.7,4.4Z"/>
    <path d="M162,92.7c-2.5,2.1-5.2,3.9-8.1,5l-4.7-6.8c2.2-1.7,4.8-4.7,8.1-5l4.7,6.8"/>
    <path d="M157.6,102.1c-1.9,5-2.2,10.6-2.8,16.2.2,4.3,5.3,5.3,8.3,7.2l-11.2,5.6c-2.2-.8-4.4-2.4-5.7-4.4-1.3-7.9,1.4-15.6,3.2-23,1.8-1.5,5.7-.6,8.2-1.6"/>
    <path d="M181.1,101.7c-1.6,4.7-2.4,9.8-3.3,14.7l.5.5c5.6-5.9,11.4-13.4,19.2-15.5,1.4,0,2.6.7,3.6,1.9,1.7,4.9-2.8,9.2-1.8,13.7,5.4-5.8,11.3-12.9,18.7-15.4,2,0,2.7,2,3.1,3.4-.2,7.7-4.1,17.6,3.5,23.4-3.1,1-7.1,2.1-10.7,3.1-6.8-4.9-2.2-12.7-4.5-19.5-9.2,5.9-10.3,19.4-22.7,19.4l-.5-1c.7-6.8,3.8-13.3,3.2-20.1-6.7,6-12.2,12.4-15,19.8-3.3,0-5.7,2.1-9.2,1.6,2-9.1,3.2-18.6,4.6-27.9,3.5-1.4,7.6-1.4,11.3-2.1"/>
    <path d="M262.7,107.7c2,6,.1,13-4.8,17.7-5.3,4.8-12.2,7.4-19.9,5.7-3.5-.9-7.2-3.4-8.8-6.7-1.8-7.7,1.6-15.2,8.9-19.7,2.6-1.1,5.1-2.3,8.1-2.6-.1.9-1.7,2.3-3,2.5-2.7,2.4-5.1,5-5.5,8.4-.2,4.1,2,7.6,5.8,9.7,4.7,1.8,10.8.9,14.3-2.7,0-3.7-1.8-7-5.3-8.7-2.7-1.2-6.1-.8-9.2-.8,1.6-3.3,3.8-6.5,6.5-9.4,5.4-.5,10.4,2,12.9,6.6"/>
    <path d="M283.1,101.5c-.2,5.7-3.4,10.8-2.8,16.2,5.5-5.8,10.2-14,18.1-16.4,2.1-.3,3.2.5,3.1,1.9l-.6,19.5c.5,2.6,3.5,3.2,5.2,4.8-3.8.9-7.3,2.9-11.2,3.6-6.1-4.6-3.7-13.3-4.4-19.5-5.1,5.8-10.7,12-13.1,18.8h-9.6c0,0,5.1-27.3,5.1-27.3,3.4-.5,6.7-1.1,10.2-1.6"/>
    <path d="M524.5,112.6c.7,6.7-3.6,12.4-9.4,15.8-5.3,2.6-13.2,3.9-18.4.3-2.3-2.4-4.3-4.9-4.3-8.2l8.1-7.9c2,4,2.1,9.2,6.9,11.6,2.2,0,4.7,2.7,6.7.4,1.9-4.7-.7-9.9-4.4-13.6-3.1-.2-3.2,3.2-5.5,4.5-.2-4.6,2.6-9.3,4.4-13.7l9.2-3.6c-4.4,6.6,7.3,7.9,6.7,14.4"/>
    <path d="M449.1,106.5c2.2,5.5,1.3,12.3-2.8,16.6-5.5,6.4-13.4,9-21.9,7.2-3-.9-6-3.1-7.8-5.7-2.8-5.6-.1-11.7,3.3-16.2,3.6-3.9,8-6,13.2-6.6-3.2,2.9-8.6,5.8-8.5,10.9.2,3.7,1.4,7.5,5.3,9.2,3.6,1.5,7.6,1.5,11.3.3,1.2-.8,2.6-1.2,3.5-2.5.6-3-1-5.2-2.7-7.3-3.3-2.2-7.6-3.7-11.8-2.2,2.6-3.3,4.6-7.3,8-9.9,4.3.6,8.5,2.4,10.9,6.2"/>
    <path d="M488,106.4c3.6,5.2.5,11.5-2.3,16.1-4.8,5.7-11,8.3-18.3,8.6-4.4-1.2-9.4-2.1-11.9-6.6-1.4-5.3-.5-11,2.8-15.2,3.7-4.5,8.1-7.4,13.7-7.6-2.2,3.3-8.3,5.2-8,9.9-1.3,4.9,2,8.3,5.8,10.6,4.6,2,10.2.4,13.8-2.7.6-2.8-1-4.7-2.2-6.8-3-2.5-7-3.8-10.8-2.7-.3-.2-.6-.6-1-.5,3.3-3,4.5-12.2,11.6-8.5,2.6,1.3,5.4,2.8,6.8,5.4"/>
    <polyline class="st0" points="207 92.8 241.5 93 255.4 53.9 220.8 53.7 207 92.8"/>
    <polyline class="st0" points="250.7 93 264.3 53.8 298.8 53.8 285.2 93 250.7 93"/>
    <polyline class="st4" points="179 179.3 192.5 140.1 227.1 140.1 213.5 179.3 179 179.3"/>
    <polyline class="st4" points="222.2 179.3 235.7 140.1 270.2 140.1 256.6 179.3 222.2 179.3"/>
  </g>
</svg>