<?xml version="1.0" encoding="UTF-8"?>
<svg id="Laag_1" xmlns="http://www.w3.org/2000/svg" version="1.1" viewBox="0 0 671.2 125.6">
  <!-- Generator: Adobe Illustrator 30.5.0, SVG Export Plug-In . SVG Version: 2.1.4 Build 167)  -->
  <defs>
    <style>
      .st0, .st1 {
        fill-rule: evenodd;
      }

      .st0, .st2 {
        fill: #fdc41f;
      }

      .st1, .st3 {
        fill: #e3051a;
      }
    </style>
  </defs>
  <path d="M77.1,23.2c.5,5.8-6.4,9.1-10.5,11.9,0-2.4,1.8-4.9.4-7.3-5.7-7.8-15-8.6-24.3-8.4-5.1,1.1-11.5,3.3-12.6,9,.2,2.9,2.8,5.2,5.2,6.8,11.1,4.6,23,7.5,33.5,13.6,5.1,3.7,5.5,10.9,3.4,16.1-4,10.2-18.5,14.6-29.9,17.1-13.4,2.6-27.5,1-38.5-5.2-4.3-2.8-4.2-7.5-3.2-12,1.8-2.9,2.8-5.8,7.4-7.7-.6,2.3-1,5.8.7,7.8,4,9,28.2,12,45,8.4,5.1-1.4,11.6-4.6,11.7-7.9,2.4-11-14.5-11.4-22.7-15.7-7.6-3.3-20.7-5.3-20.3-16.3.9-8.4,9.7-14.3,17.1-17.4,11.6-4.2,28.1-4.2,37,4.8l.6,2.4"/>
  <path d="M330.7,25.9c-3.2-4.2-8.1-6.3-13.9-5.1-13.6,2.2-9.8,16.9-13.9,25.6,9.8-.2,18.3-3.2,25.4-9.2,2.4-3.2,3.9-7.3,2.4-11.3M341.8,19.3c2.6,10.8-8.8,18.4-16.4,25.2-7.6,4.6-15.8,8.3-24.9,9.7-2.8,2.1-3.1,6-5,8.9-2.1,2.7-4.9,5.9-8.1,7.5,18,5.9,41,17.9,59.5,4.4-7.9,11.2-21.4,15.7-35.6,13.8-16-4-30.5-11.7-47.9-12.4,1.4-3.1,3.4-6.1,6-8.9,6.1-1.2,11.3,4.1,16.4.7,3-4,4.9-8.4,5.4-13.3-8.5-1.4-18.5-3.3-22.2-11.8-1.6-7.4,5.4-12.9,11-16.3h.5c-2.3,3.2-3.9,7.2-2.4,11.3,3.2,5.4,9.1,8.8,15.5,8.5.7-13.9,11.6-27.4,25.5-31.7,7.6-1.5,18.1-3,22.7,4.4Z"/>
  <path d="M96.3,39c-2.5,2.1-5.2,3.9-8.1,5l-4.7-6.8c2.2-1.7,4.8-4.7,8.1-5l4.7,6.8"/>
  <path d="M91.9,48.4c-1.9,5-2.2,10.6-2.8,16.2.2,4.3,5.3,5.3,8.3,7.2l-11.2,5.6c-2.2-.8-4.4-2.4-5.7-4.4-1.3-7.9,1.4-15.6,3.2-23,1.8-1.5,5.7-.6,8.2-1.6"/>
  <path d="M115.4,48c-1.6,4.7-2.4,9.8-3.3,14.7l.5.5c5.6-5.9,11.4-13.4,19.2-15.5,1.4,0,2.6.7,3.6,1.9,1.7,4.9-2.8,9.2-1.8,13.7,5.4-5.8,11.3-12.9,18.7-15.4,2,0,2.7,2,3.1,3.4-.2,7.7-4.1,17.6,3.5,23.4-3.1,1-7.1,2.1-10.7,3.1-6.8-4.9-2.2-12.7-4.5-19.5-9.2,5.9-10.3,19.4-22.7,19.4l-.5-1c.7-6.8,3.8-13.3,3.2-20.1-6.7,6-12.2,12.4-15,19.8-3.3,0-5.7,2.1-9.2,1.6,2-9.1,3.2-18.6,4.6-27.9,3.5-1.4,7.6-1.4,11.3-2.1"/>
  <path d="M197,54c2,6,.1,13-4.8,17.7-5.3,4.8-12.2,7.4-19.9,5.7-3.5-.9-7.2-3.4-8.8-6.7-1.8-7.7,1.6-15.2,8.9-19.7,2.6-1.1,5.1-2.3,8.1-2.6-.1.9-1.7,2.3-3,2.5-2.7,2.4-5.1,5-5.5,8.4-.2,4.1,2,7.6,5.8,9.7,4.7,1.8,10.8.9,14.3-2.7,0-3.7-1.8-7-5.3-8.7-2.7-1.2-6.1-.8-9.2-.8,1.6-3.3,3.8-6.5,6.5-9.4,5.4-.5,10.4,2,12.9,6.6"/>
  <path d="M217.4,47.8c-.2,5.7-3.4,10.8-2.8,16.2,5.5-5.8,10.2-14,18.1-16.4,2.1-.3,3.2.5,3.1,1.9l-.6,19.5c.5,2.6,3.5,3.2,5.2,4.8-3.8.9-7.3,2.9-11.2,3.6-6.1-4.6-3.7-13.3-4.4-19.5-5.1,5.8-10.7,12-13.1,18.8h-9.6c0,0,5.1-27.3,5.1-27.3,3.4-.5,6.7-1.1,10.2-1.6"/>
  <path d="M458.8,58.9c.7,6.7-3.6,12.4-9.4,15.8-5.3,2.6-13.2,3.9-18.4.3-2.3-2.4-4.3-4.9-4.3-8.2l8.1-7.9c2,4,2.1,9.2,6.9,11.6,2.2,0,4.7,2.7,6.7.4,1.9-4.7-.7-9.9-4.4-13.6-3.1-.2-3.2,3.2-5.5,4.5-.2-4.6,2.6-9.3,4.4-13.7l9.2-3.6c-4.4,6.6,7.3,7.9,6.7,14.4"/>
  <path d="M383.4,52.8c2.2,5.5,1.3,12.3-2.8,16.6-5.5,6.4-13.4,9-21.9,7.2-3-.9-6-3.1-7.8-5.7-2.8-5.6-.1-11.7,3.3-16.2,3.6-3.9,8-6,13.2-6.6-3.2,2.9-8.6,5.8-8.5,10.9.2,3.7,1.4,7.5,5.3,9.2,3.6,1.5,7.6,1.5,11.3.3,1.2-.8,2.6-1.2,3.5-2.5.6-3-1-5.2-2.7-7.3-3.3-2.2-7.6-3.7-11.8-2.2,2.6-3.3,4.6-7.3,8-9.9,4.3.6,8.5,2.4,10.9,6.2"/>
  <path d="M422.3,52.7c3.6,5.2.5,11.5-2.3,16.1-4.8,5.7-11,8.3-18.3,8.6-4.4-1.2-9.4-2.1-11.9-6.6-1.4-5.3-.5-11,2.8-15.2,3.7-4.5,8.1-7.4,13.7-7.6-2.2,3.3-8.3,5.2-8,9.9-1.3,4.9,2,8.3,5.8,10.6,4.6,2,10.2.4,13.8-2.7.6-2.8-1-4.7-2.2-6.8-3-2.5-7-3.8-10.8-2.7-.3-.2-.6-.6-1-.5,3.3-3,4.5-12.2,11.6-8.5,2.6,1.3,5.4,2.8,6.8,5.4"/>
  <polyline class="st0" points="141.3 39.1 175.8 39.3 189.7 .2 155.1 0 141.3 39.1"/>
  <polyline class="st0" points="185 39.3 198.6 .1 233.1 .1 219.5 39.3 185 39.3"/>
  <polyline class="st1" points="113.3 125.6 126.8 86.4 161.4 86.4 147.8 125.6 113.3 125.6"/>
  <polyline class="st1" points="156.5 125.6 170 86.4 204.5 86.4 190.9 125.6 156.5 125.6"/>
  <rect class="st3" x="477.9" y=".1" width="193.3" height="125.5" rx="25.1" ry="25.1"/>
  <g>
    <path class="st2" d="M494.8,90.8c-.5,0-1-.2-1.5-.6-.4-.4-.6-.9-.6-1.5v-52.3c0-.6.2-1.1.6-1.5.4-.4.9-.6,1.5-.6h22.1c5.2,0,9.7.8,13.6,2.5,3.8,1.7,6.8,4.2,9,7.5,2.2,3.3,3.4,7.3,3.6,12.1.1,2.3.2,4.4.2,6.1s0,3.8-.2,6.1c-.2,5.1-1.4,9.2-3.4,12.5-2.1,3.3-5,5.7-8.8,7.3s-8.3,2.4-13.6,2.4h-22.5ZM510.1,77.1h6.9c1.8,0,3.3-.3,4.5-.9,1.2-.6,2.2-1.5,2.9-2.8.7-1.3,1.1-2.9,1.1-4.9,0-1.6,0-3,.1-4.2,0-1.2,0-2.5,0-3.7,0-1.2,0-2.6-.1-4.1-.1-3-1-5.1-2.5-6.5-1.6-1.3-3.7-2-6.4-2h-6.5v29.1Z"/>
    <path class="st2" d="M553.6,90.8c-.5,0-1-.2-1.5-.6-.4-.4-.6-.9-.6-1.5v-52.3c0-.6.2-1.1.6-1.5.4-.4.9-.6,1.5-.6h39.6c.6,0,1.1.2,1.5.6.4.4.6.9.6,1.5v9.5c0,.5-.2,1-.6,1.5-.4.4-.9.6-1.5.6h-25v8h23.2c.6,0,1.1.2,1.5.6.4.4.6.9.6,1.5v8.7c0,.6-.2,1.1-.6,1.5-.4.4-.9.6-1.5.6h-23.2v8.2h25.6c.6,0,1.1.2,1.5.6.4.4.6.9.6,1.5v9.5c0,.6-.2,1.1-.6,1.5s-.9.6-1.5.6h-40.2Z"/>
    <path class="st2" d="M601.4,90.8c-.5,0-.9-.2-1.2-.5-.3-.3-.5-.8-.5-1.3s0-.2,0-.4c0-.1,0-.3.2-.5l17.3-26.3-15.8-25c-.2-.3-.3-.6-.3-.9,0-.5.2-.9.5-1.3.3-.3.8-.5,1.3-.5h14.6c.9,0,1.6.2,2.1.7.5.5.8.9,1,1.1l7.7,12.3,8-12.3c.2-.3.5-.6,1-1.1.5-.5,1.2-.7,2.1-.7h13.9c.5,0,.9.2,1.3.5.3.4.5.8.5,1.3s0,.6-.2.9l-16.1,24.8,17.5,26.4c.1.2.2.4.2.5,0,.1,0,.3,0,.4,0,.5-.2.9-.5,1.3s-.7.5-1.2.5h-15.2c-.9,0-1.5-.2-2.1-.7s-.8-.8-.9-1.1l-8.9-13.2-8.6,13.2c-.1.3-.4.6-.9,1.1-.5.5-1.2.7-2.1.7h-14.7Z"/>
  </g>
</svg>